<svg xmlns="http://www.w3.org/2000/svg" viewBox="0 0 512 512" id="ProjectManagement">
  <defs>
    <linearGradient id="a" x1="406.81" x2="30.01" y1="98.383" y2="475.183" gradientUnits="userSpaceOnUse">
      <stop offset="0" stop-color="#569728" class="stopColorfaac1e svgShape"></stop>
      <stop offset="1" stop-color="#354664" class="stopColoreb1b45 svgShape"></stop>
    </linearGradient>
  </defs>
  <path fill="url(#a)" d="M157.644,152.3a7,7,0,0,1,7-7H290.529a7,7,0,0,1,0,14H164.644A7,7,0,0,1,157.644,152.3Zm7,36.766H290.529a7,7,0,0,0,0-14H164.644a7,7,0,0,0,0,14ZM134.23,146.1v44.649a7,7,0,0,1-7,7H82.581a7,7,0,0,1-7-7V146.1a7,7,0,0,1,7-7H127.23A7,7,0,0,1,134.23,146.1Zm-14,7H89.581v30.649H120.23ZM164.644,254H290.529a7,7,0,0,0,0-14H164.644a7,7,0,0,0,0,14Zm132.885,22.766a7,7,0,0,0-7-7H164.644a7,7,0,0,0,0,14H290.529A7,7,0,0,0,297.529,276.763ZM134.23,240.8v44.649a7,7,0,0,1-7,7H82.581a7,7,0,0,1-7-7V240.8a7,7,0,0,1,7-7H127.23A7,7,0,0,1,134.23,240.8Zm-14,7H89.581v30.649H120.23ZM237.2,334.7H164.644a7,7,0,0,0,0,14H237.2a7,7,0,0,0,0-14Zm0,29.765H164.644a7,7,0,1,0,0,14H237.2a7,7,0,1,0,0-14ZM134.23,335.5v44.649a7,7,0,0,1-7,7H82.581a7,7,0,0,1-7-7V335.5a7,7,0,0,1,7-7H127.23A7,7,0,0,1,134.23,335.5Zm-14,7H89.581v30.649H120.23Zm370.484,33.318v26.544a15.833,15.833,0,0,1-8.63,14.188,55.734,55.734,0,0,1-13.749,4.814,2.113,2.113,0,0,0-1.481,1.41,101.165,101.165,0,0,1-4.146,10.022,1.937,1.937,0,0,0,.109,1.908,53.275,53.275,0,0,1,6.371,13.562,15.9,15.9,0,0,1-4.007,15.876l-18.776,18.776a15.828,15.828,0,0,1-16.131,3.927,55.756,55.756,0,0,1-13.133-6.322,2.115,2.115,0,0,0-2.049-.048,100.708,100.708,0,0,1-10.015,4.16,1.935,1.935,0,0,0-1.266,1.426,53.279,53.279,0,0,1-5.082,14.088,15.9,15.9,0,0,1-14.066,8.4H358.119a15.833,15.833,0,0,1-14.187-8.63,55.752,55.752,0,0,1-4.815-13.748,2.111,2.111,0,0,0-1.409-1.482,101.065,101.065,0,0,1-10.022-4.146,1.936,1.936,0,0,0-1.909.109,53.307,53.307,0,0,1-13.561,6.371,15.9,15.9,0,0,1-15.876-4.008l-1.446-1.445H47.039a25.782,25.782,0,0,1-25.753-25.753V70.433A25.782,25.782,0,0,1,47.039,44.679h98.4a14.777,14.777,0,0,1,14.414-11.618h14.9V23.454a19.994,19.994,0,1,1,39.988,0v9.607h14.9a14.777,14.777,0,0,1,14.413,11.618h98.4a25.783,25.783,0,0,1,25.753,25.754v199.33h16.323a15.834,15.834,0,0,1,14.188,8.631,55.774,55.774,0,0,1,4.815,13.747,2.109,2.109,0,0,0,1.409,1.482,101.114,101.114,0,0,1,10.022,4.147,1.946,1.946,0,0,0,1.909-.109,53.2,53.2,0,0,1,13.561-6.371,15.9,15.9,0,0,1,15.876,4.006l18.776,18.777a15.829,15.829,0,0,1,3.927,16.131,55.709,55.709,0,0,1-6.322,13.132,2.118,2.118,0,0,0-.048,2.049,101.1,101.1,0,0,1,4.161,10.015,1.96,1.96,0,0,0,1.424,1.266,53.26,53.26,0,0,1,14.089,5.082h0A15.9,15.9,0,0,1,490.714,375.814ZM342.456,58.679H244.4v9.78h93.028a7,7,0,0,1,7,7V277.283a15.858,15.858,0,0,1,9.78-7.063V70.433A11.767,11.767,0,0,0,342.456,58.679ZM277.471,314.166l18.776-18.777a15.833,15.833,0,0,1,16.131-3.927,55.78,55.78,0,0,1,13.133,6.323,2.121,2.121,0,0,0,2.048.048c.947-.455,1.906-.892,2.87-1.318V82.459H243.762a14.782,14.782,0,0,1-14.118,10.472H159.851a14.78,14.78,0,0,1-14.118-10.472H59.066V443.781H275.26a57.471,57.471,0,0,1,4.7-8.814,2.115,2.115,0,0,0,.048-2.049,101.228,101.228,0,0,1-4.16-10.015,1.932,1.932,0,0,0-1.425-1.266,53.289,53.289,0,0,1-14.089-5.082,15.9,15.9,0,0,1-8.395-14.066V375.945a15.836,15.836,0,0,1,8.63-14.188,55.752,55.752,0,0,1,13.748-4.815,2.105,2.105,0,0,0,1.482-1.409,101.255,101.255,0,0,1,4.147-10.022,1.936,1.936,0,0,0-.109-1.908,53.269,53.269,0,0,1-6.371-13.561A15.893,15.893,0,0,1,277.471,314.166ZM159.093,78.173a.759.759,0,0,0,.758.758h69.793a.758.758,0,0,0,.757-.758V47.819a.758.758,0,0,0-.757-.758h-21.9a7,7,0,0,1-7-7V23.454a5.994,5.994,0,1,0-11.988,0V40.061a7,7,0,0,1-7,7h-21.9a.759.759,0,0,0-.758.758Zm121.8,389.388-3.331-3.331a16.027,16.027,0,0,1-3.946-6.449H52.066a7,7,0,0,1-7-7V75.459a7,7,0,0,1,7-7h93.027v-9.78H47.039A11.767,11.767,0,0,0,35.286,70.433V455.808a11.766,11.766,0,0,0,11.753,11.753Zm195.82-91.747a1.951,1.951,0,0,0-.991-1.717,39.334,39.334,0,0,0-10.391-3.735,16.043,16.043,0,0,1-11.727-10.3,86.594,86.594,0,0,0-3.581-8.621,16.185,16.185,0,0,1,.927-15.73,41.768,41.768,0,0,0,4.745-9.825,1.915,1.915,0,0,0-.508-1.917L436.413,305.2a1.925,1.925,0,0,0-1.911-.51,39.257,39.257,0,0,0-9.991,4.709,16.047,16.047,0,0,1-15.586,1,87.272,87.272,0,0,0-8.629-3.57,16.191,16.191,0,0,1-10.455-11.772,41.751,41.751,0,0,0-3.59-10.3,1.921,1.921,0,0,0-1.719-1H357.988a1.951,1.951,0,0,0-1.717.992,39.259,39.259,0,0,0-3.734,10.391,16.049,16.049,0,0,1-10.3,11.726,86.744,86.744,0,0,0-8.624,3.581,16.186,16.186,0,0,1-15.729-.926,41.724,41.724,0,0,0-9.826-4.746,1.917,1.917,0,0,0-1.916.508L287.37,324.065a1.921,1.921,0,0,0-.51,1.911,39.266,39.266,0,0,0,4.709,9.99,16.05,16.05,0,0,1,1,15.586A87.12,87.12,0,0,0,289,360.18a16.186,16.186,0,0,1-11.773,10.456,41.721,41.721,0,0,0-10.3,3.59,1.92,1.92,0,0,0-1,1.719v26.544a1.956,1.956,0,0,0,.992,1.718,39.26,39.26,0,0,0,10.391,3.733,16.049,16.049,0,0,1,11.726,10.3,87.148,87.148,0,0,0,3.581,8.623,16.186,16.186,0,0,1-.926,15.729,41.761,41.761,0,0,0-4.746,9.826,1.918,1.918,0,0,0,.508,1.916l18.776,18.775a1.92,1.92,0,0,0,1.911.511,39.257,39.257,0,0,0,9.991-4.709,16.049,16.049,0,0,1,15.586-1,87.054,87.054,0,0,0,8.627,3.57,16.184,16.184,0,0,1,10.456,11.773,41.762,41.762,0,0,0,3.59,10.3,1.921,1.921,0,0,0,1.719,1h26.544a1.95,1.95,0,0,0,1.717-.992,39.308,39.308,0,0,0,3.735-10.391,16.043,16.043,0,0,1,10.3-11.726,86.875,86.875,0,0,0,8.62-3.581,16.19,16.19,0,0,1,15.731.926,41.734,41.734,0,0,0,9.825,4.746,1.914,1.914,0,0,0,1.916-.507l18.776-18.777a1.921,1.921,0,0,0,.511-1.911,39.338,39.338,0,0,0-4.709-9.991,16.045,16.045,0,0,1-1-15.586,87.288,87.288,0,0,0,3.569-8.627,16.186,16.186,0,0,1,11.772-10.456,41.765,41.765,0,0,0,10.3-3.59,1.922,1.922,0,0,0,1-1.719Zm-37.049,13.337a68.339,68.339,0,1,1-68.339-68.339A68.417,68.417,0,0,1,439.665,389.151Zm-95.236,47.186a54.035,54.035,0,0,0,9.78,4.375V337.59a54.108,54.108,0,0,0-9.78,4.376Zm-14-11.466v-71.44a54.181,54.181,0,0,0,0,71.44Zm95.236-35.72a54.4,54.4,0,0,0-54.339-54.339c-1.047,0-2.085.037-3.117.1V443.4c1.032.058,2.07.1,3.117.1A54.4,54.4,0,0,0,425.665,389.151Z"></path>
</svg>
