<svg xmlns="http://www.w3.org/2000/svg" viewBox="0 0 100 100" id="SolarEnergy">
  <path d="m6.6 32.5-2 .8c-.5.2-.8.8-.6 1.3.2.4.6.7 1 .7.1 0 .3 0 .4-.1l2-.8c.5-.2.8-.8.6-1.3-.3-.5-.9-.8-1.4-.6zM39 21.6c.1 0 .3 0 .4-.1l2-.8c.5-.2.8-.8.6-1.3-.2-.5-.8-.8-1.3-.6l-2 .8c-.5.2-.8.8-.6 1.3.1.4.5.7.9.7zM15.6 11.4c.2.4.5.6.9.6.1 0 .3 0 .4-.1.5-.2.8-.8.6-1.3l-.8-2c-.2-.5-.8-.8-1.3-.6-.5.2-.8.8-.6 1.3l.8 2.1zM4.8 20.3l2 .8c.1.1.3.1.4.1.4 0 .8-.2.9-.6.2-.5 0-1.1-.5-1.3l-2-.8c-.5-.2-1.1 0-1.3.5-.3.5-.1 1.1.5 1.3zm24.6-8.2c.1.1.3.1.4.1.4 0 .8-.2.9-.6l.8-2c.2-.5 0-1.1-.5-1.3-.5-.2-1.1 0-1.3.5l-.8 2c-.3.5 0 1 .5 1.3zM16.6 42c-.5-.2-1.1 0-1.3.5l-.8 2c-.2.5 0 1.1.5 1.3.1.1.3.1.4.1.4 0 .8-.2.9-.6l.8-2c.3-.5 0-1.1-.5-1.3zM24 51h11v21H24zM35.1 22.1c-1.3-3.2-3.8-5.7-7-7.1-1.6-.7-3.4-1-5.1-1-1.6 0-3.3.3-4.9.9-3.2 1.3-5.7 3.8-7.1 7-1.4 3.2-1.4 6.7-.1 9.9 1.3 3.2 3.8 5.7 7 7.1 3.2 1.4 6.7 1.4 9.9.1 3.2-1.3 5.7-3.8 7.1-7 1.4-3.1 1.5-6.6.2-9.9zm-6.5 18.8c-1.5.6-3 .9-4.6 1v7h11V36c-1.6 2.2-3.8 3.9-6.4 4.9zm2 5c-.1 0-.2.1-.4.1-.4 0-.8-.2-.9-.6l-.8-2c-.2-.5 0-1.1.6-1.3.5-.2 1.1 0 1.3.6l.8 2c.2.5-.1 1-.6 1.2zM51 28h12v21H51zM65 28h11v21H65zM76 54v-3H65v7.3c1.4-1.2 3.1-2.2 4.9-2.9 2-.8 4.1-1.2 6.1-1.4zm-13 6v-9H51v21h7.1c.2-4.4 2-8.6 5-11.8-.1-.1-.1-.1-.1-.2z" fill="#354664" class="color000000 svgShape"></path>
  <path d="M92.8 66.6C90.1 60 83.7 56 77 56c-2.1 0-4.3.4-6.3 1.2-8.7 3.5-12.9 13.4-9.4 22.1 3.5 8.7 13.4 12.9 22.1 9.4 8.6-3.4 12.9-13.4 9.4-22.1zm-7.1 3.1-16 16c-.2.2-.4.3-.7.3-.2 0-.4-.1-.6-.2-.4-.3-.5-.8-.3-1.3L73.4 74H70c-.4 0-.7-.2-.9-.5-.2-.3-.2-.7 0-1l6-11c.2-.3.5-.5.9-.5h7c.4 0 .7.2.9.5.2.3.2.7 0 1L80.7 68H85c.4 0 .8.2.9.6s.1.8-.2 1.1zM37 32.3V49h12V28H38c-.1 1.5-.5 2.9-1 4.3zm2.3.5 2 .8c.5.2.7.8.5 1.3-.2.4-.5.6-.9.6-.1 0-.3 0-.4-.1l-2-.8c-.5-.2-.7-.8-.5-1.3.2-.4.8-.7 1.3-.5zM37 51h12v21H37z" fill="#354664" class="color000000 svgShape"></path>
</svg>
