<svg xmlns="http://www.w3.org/2000/svg" enable-background="new 0 0 512 512" viewBox="0 0 512 512" id="Sun">
  <g fill="#000000" class="color000000 svgShape">
    <circle cx="255.9" cy="256" r="124.4" fill="#fe9702" class="colorfed402 svgShape"></circle>
    <path fill="#fea31f" d="M293.3,137.3c23,22.6,37.3,54,37.3,88.8c0,68.7-55.7,124.4-124.4,124.4c-13,0-25.5-2-37.3-5.7
		c22.4,22,53.1,35.5,87,35.5c68.7,0,124.4-55.7,124.4-124.4C380.4,200.3,343.7,153.1,293.3,137.3z" class="colorefc514 svgShape"></path>
    <path fill="#feaa30" d="M255.9 95.3c13.2 0 26.1 1.6 38.4 4.6 6.5 1.6 11.9-5.1 9.1-11.1L263.3 4.5c-2.9-6-11.5-6-14.4 0l-40.2 84.3c-2.9 6 2.5 12.7 9.1 11.1C229.8 96.9 242.7 95.3 255.9 95.3zM255.9 416.7c-13.2 0-26.1-1.6-38.4-4.6-6.5-1.6-11.9 5.1-9.1 11.1l40.2 84.3c2.9 6 11.5 6 14.4 0l40.2-84.3c2.9-6-2.5-12.7-9.1-11.1C282.1 415.1 269.2 416.7 255.9 416.7zM507.5 248.8l-84.3-40.2c-6-2.9-12.7 2.5-11.1 9.1 3 12.3 4.6 25.1 4.6 38.4 0 13.3-1.6 26.1-4.6 38.4-1.6 6.5 5.1 11.9 11.1 9.1l84.3-40.2C513.5 260.3 513.5 251.7 507.5 248.8zM95.3 256c0-13.2 1.6-26.1 4.6-38.4 1.6-6.5-5.1-11.9-11.1-9.1L4.5 248.7c-6 2.9-6 11.5 0 14.4l84.3 40.2c6 2.9 12.7-2.5 11.1-9.1C96.9 282.1 95.3 269.2 95.3 256z" class="colorfedf30 svgShape"></path>
    <path fill="#fe9702" d="M171.3 104.2L83.2 73c-6.3-2.2-12.4 3.8-10.2 10.2l31.2 88.1c2.2 6.3 10.8 7.2 14.3 1.5 13.4-22.2 32.1-40.9 54.3-54.3C178.5 115 177.6 106.4 171.3 104.2zM393.4 339.1c-13.4 22.2-32.1 40.9-54.3 54.3-5.7 3.5-4.8 12 1.5 14.3l88.1 31.2c6.3 2.2 12.4-3.8 10.2-10.2l-31.2-88.1C405.5 334.3 396.9 333.4 393.4 339.1zM339.1 118.4c22.2 13.4 40.9 32.1 54.3 54.3 3.5 5.7 12 4.8 14.3-1.5l31.2-88.1c2.2-6.3-3.8-12.4-10.2-10.2l-88.1 31.2C334.3 106.4 333.4 115 339.1 118.4zM104.2 340.6L73 428.8c-2.2 6.3 3.8 12.4 10.2 10.2l88.1-31.2c6.3-2.2 7.2-10.8 1.5-14.3-22.2-13.4-40.9-32.1-54.3-54.3C115 333.4 106.4 334.3 104.2 340.6z" class="colorfed402 svgShape"></path>
  </g>
</svg>
