<svg xmlns="http://www.w3.org/2000/svg" viewBox="0 0 512 512" id="Money">
  <defs>
    <linearGradient id="a" x1="86.986" x2="423.108" y1="400.274" y2="64.153" gradientUnits="userSpaceOnUse">
      <stop offset="0" stop-color="#569728" class="stopColorfaac1e svgShape"></stop>
      <stop offset="1" stop-color="#567ab3" class="stopColoreb1b45 svgShape"></stop>
    </linearGradient>
  </defs>
  <path fill="url(#a)" d="M221.141,122.482a75.826,75.826,0,1,0,75.825,75.825A75.911,75.911,0,0,0,221.141,122.482Zm0,137.651a61.826,61.826,0,1,1,61.825-61.826A61.9,61.9,0,0,1,221.141,260.133Zm35.051-89.879a7,7,0,0,1-11.416,8.1c-5.136-7.236-12.66-11.387-20.639-11.387-8.75,0-16.533,4.941-21.442,12.569h27.886a7,7,0,1,1,0,14H197.61a36.917,36.917,0,0,0,0,9.983h32.971a7,7,0,0,1,0,14H202.7c4.908,7.628,12.691,12.568,21.441,12.568,7.145,0,13.879-3.277,18.958-9.227a7,7,0,0,1,10.648,9.089c-7.783,9.117-18.3,14.138-29.606,14.138-16.456,0-30.661-10.9-37.132-26.568h-5.8a7,7,0,1,1,0-14h2.315c-.161-1.64-.25-3.3-.25-4.991s.089-3.352.25-4.992h-2.315a7,7,0,0,1,0-14H187c6.472-15.663,20.677-26.569,37.133-26.569C236.712,152.97,248.4,159.27,256.192,170.254ZM404.7,260.813a77.641,77.641,0,1,0,77.641,77.641A77.728,77.728,0,0,0,404.7,260.813Zm0,141.281a63.641,63.641,0,1,1,63.641-63.64A63.711,63.711,0,0,1,404.7,402.094Zm35.825-92.327a7,7,0,0,1-11.416,8.1c-5.306-7.477-13.083-11.765-21.334-11.765-9.152,0-17.281,5.228-22.341,13.27h28.957a7,7,0,0,1,0,14h-34a37.847,37.847,0,0,0,0,10.615h34a7,7,0,0,1,0,14H385.432c5.06,8.042,13.189,13.269,22.341,13.269,7.39,0,14.35-3.386,19.6-9.536a7,7,0,0,1,10.649,9.09c-7.953,9.316-18.695,14.446-30.248,14.446-16.852,0-31.4-11.2-37.987-27.269h-6.075a7,7,0,0,1,0-14h2.582a50.623,50.623,0,0,1,0-10.615h-2.582a7,7,0,0,1,0-14h6.075c6.592-16.071,21.135-27.27,37.987-27.27C420.62,292.106,432.557,298.544,440.523,309.767Zm-.813-70.017V89.174a20.381,20.381,0,0,0-20.358-20.358H22.93A20.381,20.381,0,0,0,2.571,89.174V307.44A20.382,20.382,0,0,0,22.93,327.8H300.507c-.122,1.2-.216,2.41-.3,3.623H255.5a18.431,18.431,0,0,0-18.41,18.41v9.156a18.3,18.3,0,0,0,3.989,11.41,18.308,18.308,0,0,0-3.989,11.41v9.158a18.308,18.308,0,0,0,3.989,11.41,18.3,18.3,0,0,0-3.989,11.41v9.156a18.431,18.431,0,0,0,18.41,18.41H385.178a104.731,104.731,0,0,0,54.532-201.6ZM22.93,313.8a6.367,6.367,0,0,1-6.359-6.359V89.174a6.366,6.366,0,0,1,6.359-6.358H419.352a6.366,6.366,0,0,1,6.358,6.358V235.843a104.35,104.35,0,0,0-14.012-1.879V138.927a7,7,0,0,0-7-7,28.131,28.131,0,0,1-28.1-28.1,7,7,0,0,0-7-7H72.683a7,7,0,0,0-7,7,28.132,28.132,0,0,1-28.1,28.1,7,7,0,0,0-7,7v115.1a7,7,0,0,0,7,7,28.132,28.132,0,0,1,28.1,28.1,28.451,28.451,0,0,1-.154,2.939,7,7,0,0,0,6.963,7.723H307.369a103.691,103.691,0,0,0-4.461,14.012Zm228.159,77.167v-9.158a4.415,4.415,0,0,1,4.41-4.41h51.983a104.506,104.506,0,0,0,9.347,17.978H255.5A4.415,4.415,0,0,1,251.089,390.966Zm63.118-105.179H79.552a42.189,42.189,0,0,0-34.969-38.18V145.345A42.21,42.21,0,0,0,79.1,110.827h284.08A42.209,42.209,0,0,0,397.7,145.345v88.619A104.844,104.844,0,0,0,314.207,285.787Zm-63.118,64.045a4.415,4.415,0,0,1,4.41-4.41h44.707a104.242,104.242,0,0,0,2.772,17.976H255.5a4.415,4.415,0,0,1-4.41-4.41Zm4.41,77.52a4.415,4.415,0,0,1-4.41-4.41v-9.156a4.415,4.415,0,0,1,4.41-4.41h72.212A105.473,105.473,0,0,0,349.4,427.352Zm149.2,1.832a90.73,90.73,0,1,1,90.73-90.729A90.832,90.832,0,0,1,404.7,429.184ZM96.571,176.8a21.735,21.735,0,1,0,21.735,21.735A21.759,21.759,0,0,0,96.571,176.8Zm0,29.469a7.735,7.735,0,1,1,7.735-7.734A7.743,7.743,0,0,1,96.571,206.265Zm270.956-7.734a21.735,21.735,0,1,0-21.734,21.734A21.759,21.759,0,0,0,367.527,198.531Zm-29.469,0a7.735,7.735,0,1,1,7.735,7.734A7.743,7.743,0,0,1,338.058,198.531Z"></path>
</svg>
