<svg xmlns="http://www.w3.org/2000/svg" xmlns:xlink="http://www.w3.org/1999/xlink" viewBox="0 0 64 64" id="SaveWorld">
  <defs>
    <linearGradient id="a" x1="6.147" x2="48.952" y1="55.074" y2="5.281" gradientUnits="userSpaceOnUse">
      <stop offset="0" stop-color="#569728" class="stopColorfff200 svgShape"></stop>
      <stop offset="1" stop-color="#567ab3" class="stopColorcd118c svgShape"></stop>
    </linearGradient>
    <linearGradient xlink:href="#a" id="b" x1="11.948" x2="54.753" y1="60.061" y2="10.268"></linearGradient>
  </defs>
  <path fill="url(#a)" d="M34.621,31.718a1,1,0,0,0,1.393-.245l3.441-4.915a1,1,0,0,0-.246-1.393l-9.83-6.883a1,1,0,0,0-1.393.245l-3.441,4.915a1,1,0,0,0,.246,1.393Zm-5.57-11.224,8.192,5.735-2.294,3.277-8.192-5.735Z"></path>
  <path fill="url(#b)" d="M61,36H57.07l-3.06-.44A23.633,23.633,0,0,0,56,26,24,24,0,0,0,8,26a23.687,23.687,0,0,0,.71,5.74L6.93,32H3a1,1,0,0,0-1,1V45a1,1,0,0,0,1,1H5.66l8.73,6.79A.961.961,0,0,0,15,53h7a4.005,4.005,0,0,0,4,4H49a1.076,1.076,0,0,0,.62-.21L58.34,50H61a1,1,0,0,0,1-1V37A1,1,0,0,0,61,36ZM54,26a21.712,21.712,0,0,1-2.06,9.27l-1.8-.26a.959.959,0,0,0-.73.19L36.86,44.49l-2.97-5.94a.266.266,0,0,0-.06-.1L31.8,35.4l-2.73-3.64.04-.24,5.43,3.8a6.909,6.909,0,0,0,4,1.27,7.3,7.3,0,0,0,1.23-.11,7,7,0,0,0,5.68-8.11,7.007,7.007,0,0,0-2.88-4.52l-3.91-2.73.61-.16,7-2a.963.963,0,0,0,.48-.3l3.84-4.4A21.83,21.83,0,0,1,54,26ZM27.69,40.9l-1.09-.8.38-1.91a.856.856,0,0,0,0-.39c-.25-1.24-1.15-5.38-2.27-6.51-.34-.33-.05-2.04.09-2.79l2.52,1.77-.3,1.54a.982.982,0,0,0,.18.79l2.97,3.95,1.96,2.95L34.89,45H29.27a3.845,3.845,0,0,0,.1-.83A4.008,4.008,0,0,0,27.69,40.9ZM22.58,24.51a5,5,0,0,1,2-9.02,4.946,4.946,0,0,1,3.73.83l13.11,9.17a5,5,0,1,1-5.74,8.19ZM32,4A21.86,21.86,0,0,1,44.08,7.63a2.7,2.7,0,0,1-.3.39A7.449,7.449,0,0,0,40.9,9.7,13.854,13.854,0,0,1,39,11c-1,0-4.3,1.25-6.01,1.93l-7.52-2.82L21.03,6.94A21.863,21.863,0,0,1,32,4ZM19.23,8.11l5.19,3.7a1.046,1.046,0,0,0,.23.13l8,3A1.03,1.03,0,0,0,33,15a.937.937,0,0,0,.37-.07A39.192,39.192,0,0,1,39,13c.79,0,1.65-.61,3.1-1.7A13.854,13.854,0,0,1,44,10c.65,0,1.18-.46,1.7-1.19a22.061,22.061,0,0,1,3.71,3.77l-3.97,4.54-6.68,1.91-2.27.57-7.03-4.92a6.992,6.992,0,0,0-9.13.96l-.4-1.01a1.012,1.012,0,0,0-.64-.59l-4.74-1.42A22.24,22.24,0,0,1,19.23,8.11Zm-5.88,6.24,4.9,1.47L19,17.68a7.022,7.022,0,0,0,2.43,8.47l1.55,1.08c-.03.22-.08.52-.13.82-.29,1.59-.65,3.57.44,4.66.46.45,1.23,3.06,1.69,5.29l-.15.78L14.6,31.2a.993.993,0,0,0-.74-.19l-3.15.45A21.454,21.454,0,0,1,10,26,21.848,21.848,0,0,1,13.35,14.35Zm9.82,35.82a3.777,3.777,0,0,0-.61.83H15.34L6.61,44.21A.961.961,0,0,0,6,44H4V34H7a.66.66,0,0,0,.14-.01l6.59-.94,12.79,9.47a1.989,1.989,0,0,1,.85,1.65,1.919,1.919,0,0,1-.34,1.11l-.08.11a2.006,2.006,0,0,1-2.73.41L16.2,40.18l-1.14,1.64,8.02,5.62A3.969,3.969,0,0,0,28.16,47h6.65a4.2,4.2,0,0,0-.18,1.17,3.845,3.845,0,0,0,.1.83H26A4,4,0,0,0,23.17,50.17ZM60,48H58a.961.961,0,0,0-.61.21L48.66,55H26a2.006,2.006,0,0,1-2-2,2.015,2.015,0,0,1,2-2h9.82a4.009,4.009,0,0,0,5.1.44l8.03-5.62L47.8,44.18,39.78,49.8a2,2,0,0,1-2.79-.5,1.9,1.9,0,0,1-.36-1.13,2,2,0,0,1,.88-1.67l12.76-9.45,6.59.94A.66.66,0,0,0,57,38h3Z"></path>
</svg>
