<svg xmlns="http://www.w3.org/2000/svg" xml:space="preserve" viewBox="0 0 512 512" id="SearchAnalysis">
  <linearGradient id="a" x1="131.583" x2="526.996" y1="417.932" y2="22.518" gradientUnits="userSpaceOnUse">
    <stop offset="0" stop-color="#569728" class="stopColorfcc60e svgShape"></stop>
    <stop offset="1" stop-color="#354664" class="stopColore92e29 svgShape"></stop>
  </linearGradient>
  <path fill="url(#a)" d="M385.334 353.257c-4.351-4.223-10.108-6.46-16.191-6.406a22.695 22.695 0 0 0-10.271 2.62l-41.462-40.234a169.393 169.393 0 0 0 21.398-50.748v4.052a8 8 0 0 0 8 8h54.031a8 8 0 0 0 8-8V104.576a8 8 0 0 0-8-8h-54.031a8 8 0 0 0-8 8v74.125c-5.475-22.85-15.684-44.291-30.297-63.37V67.727a8 8 0 0 0-8-8h-54.03a7.97 7.97 0 0 0-5.862 2.569c-21.276-9.214-43.916-13.884-67.449-13.884-93.922 0-170.333 76.411-170.333 170.333 0 93.921 76.411 170.332 170.333 170.332 40.164 0 77.119-13.982 106.272-37.323l39.189 38.027a22.6 22.6 0 0 0-4.068 13.318c.092 6.091 2.538 11.77 6.889 15.99l89.146 86.504c4.415 4.283 10.133 6.414 15.846 6.414 5.942 0 11.88-2.307 16.334-6.897l32.186-33.17c8.737-9.003 8.521-23.438-.484-32.18l-89.146-86.503zm-30.526-240.681h38.031v141.965h-38.031V112.576zM254.48 75.727h38.03v178.814h-38.03V75.727zm-8 194.814h22.13c-18.843 34.843-55.111 56.767-95.441 56.767-59.862 0-108.564-48.701-108.564-108.563 0-59.863 48.702-108.564 108.564-108.564 23.539 0 46.578 7.748 65.312 21.865v130.496a8 8 0 0 0 7.999 7.999zM18.836 218.744c0-85.099 69.233-154.333 154.333-154.333 22.884 0 44.83 4.867 65.312 14.467v33.804c-19.531-12.012-42.216-18.503-65.312-18.503-68.686 0-124.564 55.879-124.564 124.564s55.879 124.563 124.564 124.563c25.279 0 49.62-7.533 70.389-21.785 18.768-12.88 33.508-30.431 42.905-50.981h14.048a8 8 0 0 0 8-8V144.458c12.482 22.599 18.99 47.867 18.99 74.287 0 85.099-69.233 154.332-154.332 154.332-85.1-.001-154.333-69.234-154.333-154.333zm289.295 103.785 38.786 37.636-17.376 17.907-38.053-36.924a171.48 171.48 0 0 0 16.643-18.619zM463.48 460.797l-32.186 33.17c-2.593 2.674-6.882 2.739-9.556.143l-89.146-86.504c-1.283-1.244-2.005-2.931-2.032-4.747s.644-3.524 1.89-4.808l32.185-33.169a6.705 6.705 0 0 1 4.749-2.032 6.737 6.737 0 0 1 4.807 1.889l89.145 86.503c2.674 2.595 2.739 6.882.144 9.555zM501.164 0h-54.031a8 8 0 0 0-8 8v254.54a8 8 0 0 0 8 8h54.031a8 8 0 0 0 8-8V8a8 8 0 0 0-8-8zm-8 254.54h-38.031V16h38.031v238.54zm-292.979-96.156h-54.031a8 8 0 0 0-8 8v96.156a8 8 0 0 0 8 8h54.031a8 8 0 0 0 8-8v-96.156a8 8 0 0 0-8-8zm-8 96.156h-38.031v-80.156h38.031v80.156z"></path>
</svg>
